<svg width="32" height="32" viewBox="0 0 32 32" fill="none" xmlns="http://www.w3.org/2000/svg">
<path fill-rule="evenodd" clip-rule="evenodd" d="M11.0131 19.4188C11.0921 19.3094 13.5779 17.869 13.7663 17.7535L20.7012 13.6327C20.9078 13.5112 21.9775 12.8548 22.1051 12.8244V12.6664L21.2117 11.1044C21.1327 10.9706 21.078 10.8612 20.9929 10.7154L18.3612 5.99288C18.2883 5.86525 18.2275 5.74369 18.1424 5.6039C17.7048 4.86848 17.249 3.96289 16.8174 3.23354L15.2797 0.468125C15.1946 0.316179 15.1096 0.218934 15.067 0.0365982C14.9151 0.0791431 14.9698 0.085221 14.7996 0.37088L13.1464 3.22139C11.943 5.22708 10.5512 7.66429 9.39638 9.68214C9.31737 9.81585 9.23228 9.94348 9.15934 10.0833C8.74605 10.8491 8.16866 11.7547 7.73713 12.5205L7.28129 13.3106C6.71605 14.3438 5.95024 15.5412 5.39108 16.5683C4.89878 17.4739 4.2606 18.4889 3.74399 19.4188L3.05111 20.6101C2.50411 21.6251 1.71399 22.8467 1.1609 23.8678L0.21276 25.4906C0.145904 25.6122 0.0243467 25.8006 -0.00604248 25.9161C0.230993 25.7945 0.443718 25.6426 0.674676 25.5149C0.905634 25.3934 1.13051 25.2475 1.35539 25.1077L9.60303 20.209C9.81575 20.0813 10.8611 19.4371 11.007 19.4006L11.0131 19.4188Z" fill="#0B2B55"/>
<path fill-rule="evenodd" clip-rule="evenodd" d="M22.1113 12.6603V12.8183C22.1113 14.9577 22.1903 17.0546 22.1903 19.2122C22.1903 19.7896 22.2328 20.2211 22.2328 20.7803C22.2328 21.3273 22.2328 21.8804 22.2328 22.4274C22.2328 22.9562 22.2754 23.4242 22.2754 23.9955C22.2754 24.5425 22.2754 25.0956 22.2754 25.6426C22.3179 25.7702 22.3118 25.7459 22.4759 25.7641C26.0619 25.7641 29.6964 25.8857 33.2884 25.8857C33.9023 25.8857 34.4189 25.9282 35.0571 25.9282C35.6709 25.9282 36.2909 25.9282 36.9047 25.9282C36.2179 24.6336 35.288 23.181 34.5891 21.8925L24.3115 4.0723C24.1534 3.78664 23.9893 3.53137 23.8435 3.25787L21.9532 0.000144958V2.3705C21.9532 2.68655 21.9958 2.86281 21.9958 3.13023C21.9958 3.66508 21.9958 4.20601 21.9958 4.74086C21.9958 5.31218 22.0383 5.7741 22.0383 6.30895C22.0383 6.8438 22.0383 7.37865 22.0383 7.91957C22.0383 8.47874 22.0809 8.91026 22.0809 9.48766C22.0809 10.5938 22.1234 11.5906 22.1234 12.6664L22.1113 12.6603Z" fill="#51C4D9"/>
<path fill-rule="evenodd" clip-rule="evenodd" d="M22.4701 25.7702C22.3059 25.752 22.312 25.7824 22.2695 25.6486C22.1115 25.6122 22.0568 25.5514 21.923 25.4724C21.0539 24.9862 19.5223 24.1839 18.7686 23.722C18.5316 23.5822 18.3128 23.4789 18.0697 23.333L15.2496 21.771C15.0065 21.6433 14.7937 21.5036 14.5506 21.382C14.3075 21.2604 14.0705 21.1085 13.8274 20.9809C12.9825 20.5433 11.8885 19.8747 11.0133 19.4128C10.8492 19.6559 10.7094 19.9233 10.5453 20.1968L4.51002 30.4015C4.23652 30.8938 3.84754 31.4712 3.57404 32C13.5903 32 23.4851 31.9574 33.4831 31.9574C33.4345 31.8298 33.4892 31.9149 33.3676 31.8359C32.8814 31.532 31.988 31.0944 31.4531 30.7783L27.9948 28.8517C27.7517 28.7301 27.5633 28.6025 27.3262 28.4748C27.071 28.3411 26.8765 28.2257 26.6273 28.0859L22.4761 25.7641L22.4701 25.7702Z" fill="#F16522"/>
<path fill-rule="evenodd" clip-rule="evenodd" d="M15.5167 19.3763C15.5167 21.1328 17.1699 22.4213 18.7744 22.0323C19.206 21.929 19.5828 21.771 19.911 21.4793C20.1116 21.303 20.2149 21.2301 20.3972 20.9626C20.5006 20.8107 20.5674 20.7013 20.6464 20.5311C21.5399 18.6105 19.9292 16.7264 18.3672 16.7264C17.4738 16.7264 16.9146 16.9148 16.2886 17.5408C15.8875 17.9419 15.5167 18.5984 15.5167 19.3824V19.3763Z" fill="#F16522"/>
</svg>